<svg width="892" height="574" viewBox="0 0 892 574" fill="none" xmlns="http://www.w3.org/2000/svg">
<g clip-path="url(#clip0_931_29)">
<path d="M68.7229 461.8L62.4294 436.977C51.2702 432.248 39.853 428.151 28.2324 424.708L27.4378 436.244L24.2156 423.535C9.80412 419.42 0 417.607 0 417.607C0 417.607 13.2431 467.966 41.0195 506.467L73.3852 512.152L48.2412 515.777C51.7367 519.982 55.4931 523.963 59.4884 527.697C99.8953 565.203 144.901 582.411 160.011 566.132C175.122 549.853 154.615 506.251 114.208 468.745C101.682 457.118 85.9456 447.787 70.194 440.443L68.7229 461.8Z" fill="#E6E6E6"/>
<path d="M128.579 434.843L136.022 410.34C128.914 400.524 121.258 391.116 113.09 382.161L106.447 391.626L110.258 379.081C100.048 368.108 92.5922 361.489 92.5922 361.489C92.5922 361.489 77.898 411.444 81.775 458.76L106.543 480.357L83.1444 470.463C83.9632 475.87 85.1212 481.219 86.6115 486.48C101.815 539.474 131.447 577.468 152.796 571.343C174.146 565.218 179.129 517.293 163.926 464.3C159.213 447.871 150.565 431.75 140.877 417.321L128.579 434.843Z" fill="#E6E6E6"/>
<path d="M821.742 487.639L835.851 478.769C836.545 470.912 836.794 463.022 836.598 455.137L829.296 456.956L836.52 452.415C836.182 442.667 835.34 436.233 835.34 436.233C835.34 436.233 806.81 454.521 788.534 479.432L791.497 500.612L784.216 485.768C782.312 488.775 780.6 491.899 779.088 495.12C763.958 527.653 762.318 558.968 775.425 565.064C788.532 571.159 811.422 549.727 826.552 517.194C831.243 507.109 833.869 495.496 835.26 484.272L821.742 487.639Z" fill="#E6E6E6"/>
<path d="M850.424 519.302L867.086 519.003C871.741 512.635 876.033 506.01 879.942 499.158L872.75 496.941L881.282 496.788C886.031 488.268 888.636 482.325 888.636 482.325C888.636 482.325 854.76 483.233 826.239 495.112L817.827 514.774L819.266 498.304C816.082 499.894 813.002 501.682 810.043 503.659C780.274 523.688 762.684 549.647 770.753 561.64C778.822 573.633 809.496 567.119 839.264 547.09C848.493 540.88 856.743 532.296 863.736 523.407L850.424 519.302Z" fill="#E6E6E6"/>
<path d="M890.029 571.273H2.0293V573.513H890.029V571.273Z" fill="#3F3D56"/>
<path d="M254.127 61.8268L251.827 60.673L245.596 73.0917L247.896 74.2455L254.127 61.8268Z" fill="white"/>
<path d="M240.874 372.592L240.113 372.681L240.592 376.795L241.354 376.706L240.874 372.592Z" fill="#3F3D56"/>
<path d="M245.423 408.899L245.181 408.171L241.25 409.475L241.492 410.203L245.423 408.899Z" fill="white"/>
<path d="M241.86 387.572L241.094 387.618L241.343 391.753L242.108 391.707L241.86 387.572Z" fill="white"/>
<path d="M238.28 364.902L237.514 364.948L237.763 369.082L238.529 369.036L238.28 364.902Z" fill="white"/>
<path d="M292.99 381.812L292.703 381.1L288.863 382.652L289.15 383.363L292.99 381.812Z" fill="#FF6584"/>
<path d="M247.714 380.602L246.973 380.404L245.901 384.405L246.642 384.603L247.714 380.602Z" fill="#FF6584"/>
<path d="M288.897 70.6075H286.479V83.6651H288.897V70.6075Z" fill="#3F3D56"/>
<path d="M287.446 102.042H285.028V115.1H287.446V102.042Z" fill="white"/>
<path d="M285.614 374.945L285.104 374.435L282.352 377.188L282.862 377.697L285.614 374.945Z" fill="white"/>
<path d="M292.852 416.638L292.342 416.129L289.59 418.881L290.1 419.391L292.852 416.638Z" fill="white"/>
<path d="M287.078 399.357L286.382 399.17L285.374 402.93L286.07 403.117L287.078 399.357Z" fill="#FF6584"/>
<path d="M288.876 385.139L288.367 384.629L285.614 387.382L286.124 387.891L288.876 385.139Z" fill="#FF6584"/>
<path d="M277.806 384.67C278.426 384.05 278.775 383.209 278.775 382.332C278.775 381.455 278.426 380.614 277.806 379.994C277.186 379.374 276.345 379.025 275.468 379.025C274.591 379.025 273.75 379.374 273.129 379.994L167.613 485.51C166.993 486.13 166.644 486.971 166.644 487.849C166.644 488.726 166.993 489.567 167.613 490.187C168.233 490.807 169.074 491.155 169.951 491.155C170.828 491.155 171.669 490.807 172.289 490.187L277.127 385.349" fill="#414144"/>
<path d="M288.591 371.353C280.905 363.676 270.917 358.729 260.153 357.266C249.389 355.804 238.442 357.908 228.987 363.256C219.532 368.604 212.089 376.903 207.796 386.881C203.504 396.86 202.598 407.97 205.218 418.513C207.837 429.055 213.838 438.449 222.302 445.258C230.766 452.067 241.228 455.916 252.086 456.216C262.945 456.517 273.603 453.252 282.431 446.922C291.259 440.591 297.77 431.543 300.968 421.162C303.629 412.519 303.882 403.314 301.701 394.538C299.521 385.761 294.988 377.745 288.591 371.353ZM247.889 425.447C244.467 424.497 241.349 422.678 238.839 420.166C238.331 419.658 237.861 419.123 237.41 418.578C234.31 414.758 232.677 409.955 232.807 405.038C232.937 400.12 234.821 395.41 238.119 391.76C241.417 388.109 245.911 385.757 250.791 385.13C255.67 384.502 260.613 385.64 264.727 388.337C268.842 391.035 271.856 395.114 273.226 399.839C274.596 404.564 274.232 409.623 272.2 414.103C270.167 418.583 266.599 422.189 262.141 424.269C257.683 426.349 252.628 426.767 247.889 425.447Z" fill="#222121"/>
<path d="M175.926 94.9452C175.926 92.0031 174.757 89.1816 172.677 87.1012C170.597 85.0209 167.775 83.8522 164.833 83.8522C161.891 83.8522 159.069 85.0209 156.989 87.1012C154.909 89.1816 153.74 92.0031 153.74 94.9452V562.484C153.74 563.941 154.027 565.383 154.584 566.729C155.142 568.075 155.959 569.298 156.989 570.328C158.019 571.358 159.242 572.175 160.588 572.732C161.934 573.29 163.376 573.577 164.833 573.577C166.29 573.577 167.732 573.29 169.078 572.732C170.424 572.175 171.647 571.358 172.677 570.328C173.707 569.298 174.524 568.075 175.082 566.729C175.639 565.383 175.926 563.941 175.926 562.484V98.167" fill="#666668"/>
<path d="M317.428 90.8009C298.38 54.7719 266.806 26.9581 228.663 12.6055C190.52 -1.74712 148.443 -1.64644 110.368 12.8886C72.294 27.4235 40.8542 55.3881 21.9788 91.5079C3.10332 127.628 -1.90299 169.406 7.90406 208.963C17.7111 248.519 41.6536 283.121 75.2158 306.24C108.778 329.359 149.64 339.398 190.094 334.464C230.549 329.53 267.8 309.963 294.821 279.455C321.843 248.947 336.766 209.605 336.778 168.851C336.789 141.645 330.146 114.85 317.428 90.8009ZM203.92 229.091C190.686 236.561 175.36 239.465 160.31 237.354C145.261 235.242 131.326 228.233 120.658 217.41C109.991 206.586 103.185 192.551 101.292 177.472C99.3994 162.394 102.525 147.111 110.187 133.987C117.849 120.863 129.619 110.627 143.68 104.862C157.741 99.0968 173.309 98.1227 187.979 102.09C202.648 106.058 215.603 114.747 224.841 126.814C234.079 138.88 239.085 153.654 239.087 168.851C239.123 181.114 235.883 193.165 229.7 203.756C223.517 214.347 214.617 223.094 203.92 229.091Z" fill="#222121"/>
<path opacity="0.2" d="M169.444 325.054C126.096 325.053 84.4497 308.181 53.324 278.01C22.1984 247.839 4.03725 206.739 2.68627 163.412C2.6285 165.216 2.59897 167.028 2.59766 168.847C2.5923 190.761 6.90395 212.461 15.2864 232.709C23.6688 252.956 35.9578 271.354 51.4515 286.852C66.9452 302.349 85.34 314.643 105.585 323.03C125.831 331.417 147.53 335.734 169.444 335.734C191.358 335.734 213.058 331.417 233.303 323.03C253.549 314.643 271.944 302.349 287.437 286.852C302.931 271.354 315.22 252.956 323.602 232.709C331.985 212.461 336.296 190.761 336.291 168.847C336.291 167.026 336.262 165.212 336.203 163.405C334.853 206.734 316.693 247.836 285.567 278.008C254.441 308.18 212.794 325.053 169.444 325.054Z" fill="black"/>
<path opacity="0.2" d="M169.928 85.5945C153.462 85.5954 137.367 90.4787 123.677 99.6268C109.987 108.775 99.3177 121.777 93.0172 136.989C86.7167 152.201 85.0684 168.94 88.2808 185.089C91.4933 201.237 99.4221 216.071 111.065 227.714C122.707 239.356 137.541 247.285 153.69 250.497C169.838 253.71 186.577 252.062 201.789 245.761C217.001 239.461 230.003 228.791 239.151 215.101C248.3 201.411 253.183 185.316 253.184 168.851C253.159 146.777 244.38 125.615 228.772 110.007C213.163 94.3985 192.001 85.619 169.928 85.5945ZM203.92 229.091C190.686 236.561 175.36 239.465 160.31 237.354C145.261 235.242 131.326 228.233 120.658 217.41C109.991 206.586 103.185 192.551 101.292 177.472C99.3995 162.394 102.525 147.111 110.187 133.987C117.849 120.863 129.619 110.627 143.68 104.862C157.741 99.0967 173.309 98.1227 187.979 102.09C202.649 106.058 215.603 114.747 224.841 126.814C234.079 138.88 239.085 153.654 239.087 168.851C239.124 181.114 235.883 193.165 229.7 203.756C223.517 214.347 214.617 223.094 203.92 229.091Z" fill="black"/>
<path d="M317.43 88.7963V116.551C317.432 118.577 316.826 120.558 315.692 122.237C314.558 123.917 312.948 125.218 311.067 125.974C309.187 126.73 307.124 126.906 305.143 126.479C303.162 126.052 301.354 125.041 299.952 123.578V126.741C299.952 129.938 298.682 133.005 296.421 135.266C294.16 137.527 291.093 138.797 287.896 138.797C284.698 138.797 281.632 137.527 279.371 135.266C277.11 133.005 275.839 129.938 275.839 126.741V124.105C274.381 125.417 272.574 126.277 270.636 126.583C268.698 126.888 266.714 126.626 264.922 125.826C263.131 125.027 261.61 123.725 260.543 122.079C259.477 120.433 258.91 118.512 258.913 116.551L258.429 87.0505V80.246C258.428 79.1569 257.994 78.113 257.223 77.3434C256.452 76.5739 255.408 76.1417 254.319 76.1417C253.229 76.1417 252.185 76.5739 251.414 77.3434C250.643 78.113 250.21 79.1569 250.208 80.246V87.0505L249.724 111.715C249.724 114.408 248.654 116.991 246.75 118.896C244.845 120.801 242.262 121.871 239.568 121.871C236.875 121.871 234.292 120.801 232.387 118.896C230.482 116.991 229.412 114.408 229.412 111.715L228.17 87.0505V74.4426C228.17 72.6559 227.46 70.9424 226.196 69.679C224.933 68.4156 223.22 67.7059 221.433 67.7059C219.646 67.7059 217.933 68.4156 216.669 69.679C215.406 70.9424 214.696 72.6559 214.696 74.4426V87.0504L213.937 111.715C213.938 113.827 213.281 115.887 212.056 117.608C210.831 119.328 209.1 120.624 207.104 121.314C205.107 122.004 202.945 122.054 200.919 121.456C198.893 120.859 197.104 119.645 195.801 117.982C194.195 120.036 191.859 121.391 189.279 121.765C186.7 122.14 184.075 121.506 181.951 119.994V126.741C181.951 129.938 180.68 133.005 178.419 135.266C176.158 137.527 173.092 138.797 169.894 138.797C166.697 138.797 163.63 137.527 161.369 135.266C159.108 133.005 157.838 129.938 157.838 126.741V105.911C157.839 108.235 157.043 110.488 155.582 112.295C154.122 114.102 152.087 115.354 149.815 115.841C147.543 116.329 145.173 116.022 143.1 114.973C141.028 113.923 139.377 112.195 138.425 110.075V126.741C138.425 129.938 137.155 133.005 134.894 135.266C132.633 137.527 129.566 138.797 126.369 138.797C123.171 138.797 120.105 137.527 117.844 135.266C115.583 133.005 114.312 129.938 114.312 126.741V87.0504H114.245V126.741C114.245 129.938 112.974 133.005 110.713 135.266C108.452 137.527 105.386 138.797 102.188 138.797C98.9906 138.797 95.9239 137.527 93.6629 135.266C91.4019 133.005 90.1316 129.938 90.1316 126.741V110.215C89.1535 112.308 87.4908 114.004 85.4182 115.024C83.3457 116.044 80.9872 116.327 78.7324 115.825C76.4777 115.323 74.4615 114.067 73.0169 112.265C71.5723 110.463 70.7857 108.221 70.7871 105.911V87.0504H69.7522V120.937C69.7522 124.135 68.4819 127.201 66.2209 129.462C63.9599 131.724 60.8932 132.994 57.6957 132.994C54.4981 132.994 51.4315 131.724 49.1704 129.462C46.9094 127.201 45.6392 124.135 45.6392 120.937V105.911C45.6405 107.246 45.3788 108.568 44.869 109.801C44.3592 111.034 43.6113 112.155 42.6681 113.099C41.7249 114.043 40.6049 114.792 39.3721 115.303C38.1393 115.814 36.8178 116.077 35.4833 116.077C34.1487 116.077 32.8273 115.814 31.5945 115.303C30.3616 114.792 29.2416 114.043 28.2984 113.099C27.3552 112.155 26.6074 111.034 26.0976 109.801C25.5878 108.568 25.3261 107.246 25.3274 105.911V83.5539C40.2222 57.7135 61.7692 36.3365 87.7267 21.6468C113.684 6.95714 143.104 -0.508442 172.925 0.0267581C202.746 0.561958 231.879 9.07839 257.292 24.69C282.706 40.3016 303.472 62.4381 317.43 88.7963Z" fill="#E6E6E6"/>
<path opacity="0.2" d="M102.188 132.994C100.605 132.994 99.0369 132.682 97.5741 132.076C96.1113 131.47 94.7821 130.582 93.6626 129.463C92.543 128.343 91.6549 127.014 91.0491 125.551C90.4432 124.088 90.1315 122.521 90.1316 120.937V127.224C90.1316 130.422 91.4018 133.488 93.6629 135.749C95.9239 138.011 98.9905 139.281 102.188 139.281C105.386 139.281 108.452 138.011 110.713 135.749C112.974 133.488 114.245 130.422 114.245 127.224V120.937C114.245 122.521 113.933 124.088 113.327 125.551C112.721 127.014 111.833 128.343 110.714 129.463C109.594 130.582 108.265 131.47 106.802 132.076C105.339 132.682 103.771 132.994 102.188 132.994Z" fill="black"/>
<path opacity="0.2" d="M126.369 132.994C124.786 132.994 123.218 132.682 121.755 132.076C120.292 131.47 118.963 130.582 117.843 129.463C116.724 128.343 115.836 127.014 115.23 125.551C114.624 124.088 114.312 122.521 114.313 120.937V127.224C114.313 130.422 115.583 133.488 117.844 135.749C120.105 138.011 123.171 139.281 126.369 139.281C129.567 139.281 132.633 138.011 134.894 135.749C137.155 133.488 138.426 130.422 138.426 127.224V120.937C138.426 122.521 138.114 124.088 137.508 125.551C136.902 127.014 136.014 128.343 134.895 129.463C133.775 130.582 132.446 131.47 130.983 132.076C129.52 132.682 127.952 132.994 126.369 132.994Z" fill="black"/>
<path opacity="0.2" d="M90.1316 104.412C89.1535 106.505 87.4908 108.201 85.4182 109.221C83.3457 110.241 80.9872 110.523 78.7324 110.022C76.4777 109.52 74.4615 108.264 73.0169 106.462C71.5723 104.659 70.7857 102.418 70.7871 100.108V106.395C70.7857 108.705 71.5723 110.946 73.0169 112.749C74.4615 114.551 76.4777 115.807 78.7324 116.309C80.9872 116.81 83.3457 116.528 85.4182 115.508C87.4908 114.488 89.1535 112.792 90.1316 110.699V104.412Z" fill="black"/>
<path opacity="0.2" d="M114.312 81.2471H114.245V87.534H114.312V81.2471Z" fill="black"/>
<path opacity="0.2" d="M45.6392 100.108C45.6365 102.8 44.5653 105.38 42.661 107.283C40.7567 109.185 38.175 110.254 35.4833 110.254C32.7915 110.254 30.2099 109.185 28.3055 107.283C26.4012 105.38 25.3301 102.8 25.3274 100.108V106.395C25.3301 109.087 26.4012 111.667 28.3055 113.57C30.2099 115.472 32.7915 116.541 35.4833 116.541C38.175 116.541 40.7567 115.472 42.661 113.57C44.5653 111.667 45.6365 109.087 45.6392 106.395V100.108Z" fill="black"/>
<path opacity="0.2" d="M70.7871 81.2471H69.7522V87.534H70.7871V81.2471Z" fill="black"/>
<path opacity="0.2" d="M57.6956 127.19C56.1123 127.191 54.5445 126.879 53.0816 126.273C51.6188 125.667 50.2897 124.779 49.1701 123.659C48.0506 122.54 47.1625 121.211 46.5566 119.748C45.9508 118.285 45.639 116.717 45.6392 115.134V121.421C45.6392 124.619 46.9094 127.685 49.1704 129.946C51.4315 132.207 54.4981 133.477 57.6957 133.477C60.8932 133.477 63.9599 132.207 66.2209 129.946C68.4819 127.685 69.7522 124.619 69.7522 121.421V115.134C69.7523 116.717 69.4405 118.285 68.8347 119.748C68.2288 121.211 67.3407 122.54 66.2211 123.659C65.1016 124.779 63.7724 125.667 62.3096 126.273C60.8468 126.879 59.2789 127.191 57.6956 127.19Z" fill="black"/>
<path opacity="0.2" d="M169.894 132.994C168.311 132.994 166.743 132.682 165.28 132.076C163.817 131.47 162.488 130.582 161.369 129.463C160.249 128.343 159.361 127.014 158.755 125.551C158.149 124.088 157.838 122.521 157.838 120.937V127.224C157.838 130.422 159.108 133.488 161.369 135.749C163.63 138.011 166.697 139.281 169.894 139.281C173.092 139.281 176.158 138.011 178.419 135.749C180.68 133.488 181.951 130.422 181.951 127.224V120.937C181.951 122.521 181.639 124.088 181.033 125.551C180.427 127.014 179.539 128.343 178.42 129.463C177.3 130.582 175.971 131.47 174.508 132.076C173.045 132.682 171.477 132.994 169.894 132.994Z" fill="black"/>
<path opacity="0.2" d="M258.429 74.4426C258.429 73.3524 257.996 72.3068 257.225 71.5359C256.454 70.765 255.409 70.3319 254.318 70.3319C253.228 70.3319 252.183 70.765 251.412 71.5359C250.641 72.3068 250.208 73.3524 250.208 74.4426V80.7296C250.207 80.1892 250.313 79.654 250.519 79.1545C250.725 78.6551 251.028 78.2012 251.409 77.8188C251.791 77.4364 252.245 77.133 252.744 76.926C253.243 76.719 253.778 76.6125 254.318 76.6125C254.859 76.6125 255.394 76.719 255.893 76.926C256.392 77.133 256.846 77.4364 257.227 77.8188C257.609 78.2012 257.912 78.6551 258.118 79.1545C258.324 79.654 258.43 80.1892 258.429 80.7296V74.4426Z" fill="black"/>
<path opacity="0.2" d="M157.838 100.108C157.838 102.431 157.042 104.685 155.582 106.492C154.122 108.299 152.087 109.551 149.815 110.038C147.543 110.525 145.173 110.219 143.1 109.169C141.027 108.12 139.377 106.391 138.425 104.272V110.559C139.377 112.678 141.027 114.407 143.1 115.456C145.173 116.506 147.543 116.812 149.815 116.325C152.087 115.838 154.122 114.586 155.582 112.779C157.042 110.972 157.838 108.718 157.838 106.395V100.108Z" fill="black"/>
<path opacity="0.2" d="M239.568 116.067C238.235 116.067 236.914 115.805 235.682 115.294C234.449 114.784 233.33 114.036 232.387 113.093C231.444 112.15 230.695 111.03 230.185 109.798C229.675 108.566 229.412 107.245 229.412 105.911L228.169 81.2471V87.5341L229.412 112.198C229.412 114.892 230.482 117.475 232.387 119.38C234.292 121.284 236.875 122.354 239.568 122.354C242.262 122.354 244.845 121.284 246.75 119.38C248.654 117.475 249.724 114.892 249.724 112.198L250.208 87.5341V81.2471L249.724 105.911C249.724 107.245 249.462 108.566 248.951 109.798C248.441 111.03 247.693 112.15 246.75 113.093C245.807 114.036 244.687 114.784 243.455 115.294C242.223 115.805 240.902 116.067 239.568 116.067Z" fill="black"/>
<path opacity="0.2" d="M307.274 120.903C305.906 120.904 304.551 120.627 303.293 120.089C302.034 119.551 300.898 118.764 299.952 117.774V120.937C299.952 124.135 298.682 127.201 296.421 129.462C294.16 131.723 291.093 132.994 287.896 132.994C284.698 132.994 281.632 131.723 279.371 129.462C277.11 127.201 275.839 124.135 275.839 120.937V118.302C274.381 119.613 272.573 120.474 270.636 120.78C268.698 121.085 266.714 120.822 264.922 120.023C263.131 119.223 261.61 117.922 260.543 116.275C259.477 114.629 258.91 112.709 258.913 110.748L258.429 81.2471V87.5341L258.913 117.035C258.91 118.996 259.477 120.916 260.543 122.562C261.61 124.209 263.131 125.51 264.922 126.31C266.714 127.109 268.698 127.372 270.636 127.067C272.573 126.761 274.381 125.9 275.839 124.589V127.224C275.839 130.422 277.11 133.488 279.371 135.749C281.632 138.011 284.698 139.281 287.896 139.281C291.093 139.281 294.16 138.011 296.421 135.749C298.682 133.488 299.952 130.422 299.952 127.224V124.061C301.354 125.525 303.162 126.535 305.143 126.962C307.124 127.39 309.187 127.214 311.067 126.458C312.947 125.702 314.558 124.4 315.692 122.721C316.826 121.041 317.432 119.061 317.43 117.035V110.747C317.43 112.081 317.168 113.402 316.657 114.634C316.147 115.866 315.399 116.986 314.456 117.929C313.513 118.872 312.393 119.62 311.161 120.131C309.929 120.641 308.608 120.904 307.274 120.903Z" fill="black"/>
<path opacity="0.2" d="M203.781 116.067C202.243 116.067 200.725 115.717 199.343 115.044C197.96 114.37 196.749 113.39 195.801 112.179C194.195 114.232 191.859 115.587 189.279 115.962C186.7 116.337 184.075 115.702 181.951 114.191V120.478C184.075 121.989 186.7 122.624 189.279 122.249C191.859 121.874 194.195 120.519 195.801 118.466C197.104 120.128 198.893 121.343 200.919 121.94C202.945 122.537 205.107 122.488 207.104 121.798C209.1 121.108 210.831 119.812 212.056 118.091C213.281 116.371 213.939 114.311 213.937 112.198L214.696 87.5341V81.2471L213.937 105.911C213.937 107.245 213.674 108.566 213.164 109.798C212.654 111.03 211.906 112.15 210.963 113.093C210.02 114.036 208.9 114.784 207.668 115.295C206.435 115.805 205.115 116.067 203.781 116.067Z" fill="black"/>
<path opacity="0.2" d="M228.169 68.6393C228.169 66.8526 227.46 65.1391 226.196 63.8757C224.933 62.6123 223.219 61.9026 221.433 61.9026C219.646 61.9026 217.933 62.6123 216.669 63.8757C215.406 65.1391 214.696 66.8526 214.696 68.6393V74.9263C214.696 73.1396 215.406 71.4261 216.669 70.1627C217.933 68.8993 219.646 68.1896 221.433 68.1896C223.219 68.1896 224.933 68.8993 226.196 70.1627C227.46 71.4261 228.169 73.1396 228.169 74.9263V68.6393Z" fill="black"/>
<path d="M115.521 69.8822H113.103V82.9398H115.521V69.8822Z" fill="#3F3D56"/>
<path d="M161.223 62.8698H158.805V75.9273H161.223V62.8698Z" fill="#3F3D56"/>
<path d="M103.189 114.133H100.771V127.19H103.189V114.133Z" fill="#3F3D56"/>
<path d="M201.959 91.3165L199.971 89.9407L192.541 100.679L194.53 102.054L201.959 91.3165Z" fill="#3F3D56"/>
<path d="M73.9135 70.6864L72.4131 72.5826L82.653 80.6847L84.1534 78.7884L73.9135 70.6864Z" fill="#3F3D56"/>
<path d="M216.096 21.8414L214.595 23.7377L224.835 31.8398L226.336 29.9435L216.096 21.8414Z" fill="#3F3D56"/>
<path d="M47.3146 84.2275L45.8142 86.1238L56.0541 94.2259L57.5545 92.3296L47.3146 84.2275Z" fill="#3F3D56"/>
<path d="M124.468 39.1727H122.05V52.2303H124.468V39.1727Z" fill="white"/>
<path d="M58.2132 106.395H55.7952V119.453H58.2132V106.395Z" fill="white"/>
<path d="M171.379 20.3118H168.961V33.3693H171.379V20.3118Z" fill="white"/>
<path d="M184.818 66.0397L182.656 64.9553L176.801 76.6263L178.962 77.7107L184.818 66.0397Z" fill="white"/>
<path d="M173.694 114.401L171.533 113.317L165.678 124.988L167.839 126.072L173.694 114.401Z" fill="white"/>
<path d="M140.455 87.8598L138.851 89.6692L148.621 98.3315L150.226 96.5221L140.455 87.8598Z" fill="white"/>
<path d="M92.5773 31.2769L90.9731 33.0863L100.744 41.7486L102.348 39.9393L92.5773 31.2769Z" fill="white"/>
<path d="M251.686 53.0396L250.082 54.849L259.853 63.5113L261.457 61.7019L251.686 53.0396Z" fill="white"/>
<path d="M193.169 10.4815L191.565 12.2909L201.335 20.9532L202.939 19.1438L193.169 10.4815Z" fill="white"/>
<path d="M142.846 62.8698H140.427V75.9273H142.846V62.8698Z" fill="#FF6584"/>
<path d="M279.262 71.1156L277.036 70.1707L271.933 82.1899L274.159 83.1348L279.262 71.1156Z" fill="#FF6584"/>
<path d="M94.4432 83.9354L92.3491 85.1444L98.8779 96.4526L100.972 95.2436L94.4432 83.9354Z" fill="#FF6584"/>
<path d="M232.757 74.7467L230.663 75.9557L237.191 87.2639L239.285 86.0548L232.757 74.7467Z" fill="#FF6584"/>
<path d="M146.675 26.8698L144.581 28.0789L151.11 39.3871L153.204 38.1781L146.675 26.8698Z" fill="#FF6584"/>
<path d="M249.2 24.4509L247.105 25.6599L253.634 36.9681L255.728 35.7591L249.2 24.4509Z" fill="#FF6584"/>
<path d="M116.206 13.8114L114.112 15.0204L120.641 26.3286L122.735 25.1195L116.206 13.8114Z" fill="#FF6584"/>
<path d="M203.297 36.7546H200.879V49.8122H203.297V36.7546Z" fill="#FF6584"/>
<path d="M64.0167 58.5172H61.5986V71.5748H64.0167V58.5172Z" fill="#FF6584"/>
<path opacity="0.2" d="M220.392 439.352C211.255 430.214 206.033 417.879 205.832 404.958C205.63 392.038 210.466 379.546 219.314 370.129C218.921 370.497 218.533 370.873 218.15 371.256C213.528 375.873 209.861 381.357 207.359 387.392C204.857 393.427 203.569 399.896 203.567 406.429C203.566 412.962 204.852 419.432 207.351 425.468C209.851 431.504 213.515 436.989 218.135 441.609C222.755 446.229 228.239 449.893 234.276 452.392C240.312 454.892 246.781 456.178 253.315 456.176C259.848 456.175 266.317 454.887 272.352 452.385C278.387 449.882 283.87 446.216 288.488 441.594C288.872 441.21 289.248 440.822 289.617 440.429C280.199 449.277 267.707 454.113 254.786 453.912C241.865 453.711 229.53 448.489 220.392 439.352Z" fill="black"/>
<path opacity="0.2" d="M272.981 386.963C269.112 383.091 264.181 380.453 258.812 379.384C253.443 378.315 247.878 378.862 242.82 380.956C237.763 383.05 233.439 386.597 230.398 391.148C227.356 395.699 225.733 401.051 225.733 406.525C225.733 411.999 227.356 417.35 230.398 421.901C233.439 426.453 237.763 430 242.82 432.094C247.878 434.188 253.443 434.735 258.812 433.665C264.181 432.596 269.112 429.959 272.981 426.087C278.159 420.893 281.066 413.858 281.066 406.525C281.066 399.191 278.159 392.157 272.981 386.963ZM268 420.166C264.132 424.031 258.888 426.203 253.42 426.203C247.951 426.203 242.707 424.031 238.839 420.166C238.331 419.658 237.861 419.123 237.41 418.578C234.899 415.482 233.339 411.724 232.919 407.76C232.5 403.796 233.238 399.795 235.045 396.242C236.853 392.689 239.651 389.737 243.102 387.741C246.553 385.746 250.509 384.795 254.49 385.001C258.471 385.208 262.306 386.564 265.532 388.906C268.758 391.248 271.236 394.475 272.665 398.196C274.095 401.917 274.415 405.972 273.587 409.872C272.759 413.771 270.819 417.347 268 420.166Z" fill="black"/>
<path d="M301.965 420.166L296.114 426.017C295.687 426.444 295.142 426.734 294.549 426.849C293.956 426.964 293.342 426.899 292.787 426.662C292.231 426.425 291.759 426.027 291.432 425.519C291.104 425.012 290.936 424.418 290.949 423.814L290.282 424.481C289.608 425.155 288.694 425.533 287.741 425.533C286.788 425.533 285.874 425.155 285.2 424.481C284.526 423.806 284.147 422.892 284.147 421.939C284.147 420.986 284.526 420.072 285.2 419.398L285.755 418.842C285.171 418.811 284.609 418.612 284.136 418.268C283.663 417.924 283.3 417.45 283.091 416.904C282.882 416.358 282.836 415.763 282.958 415.191C283.08 414.619 283.366 414.095 283.78 413.682L289.896 407.362L291.33 405.927C291.56 405.698 291.689 405.386 291.689 405.061C291.689 404.736 291.56 404.424 291.33 404.194C291.1 403.965 290.789 403.836 290.464 403.836C290.139 403.836 289.827 403.965 289.597 404.194L288.163 405.629L282.862 410.726C282.294 411.294 281.524 411.612 280.721 411.612C279.918 411.612 279.148 411.294 278.581 410.726C278.013 410.158 277.694 409.388 277.694 408.585C277.694 407.782 278.013 407.012 278.581 406.444L283.518 400.983L286.175 398.326C286.549 397.949 286.758 397.439 286.757 396.908C286.756 396.376 286.544 395.867 286.169 395.492C285.793 395.116 285.284 394.905 284.753 394.904C284.222 394.903 283.712 395.112 283.335 395.486L280.678 398.143L275.319 403.182C272.915 401.757 270.348 400.628 267.673 399.818C267.229 399.375 266.935 398.804 266.831 398.185L265.409 399.607C264.735 400.281 263.821 400.66 262.868 400.66C261.914 400.66 261 400.281 260.326 399.607C259.652 398.933 259.274 398.019 259.274 397.066C259.274 396.113 259.652 395.198 260.326 394.524L264.717 390.134C264.227 390.624 263.585 390.931 262.896 391.004C262.207 391.077 261.514 390.912 260.933 390.536C260.351 390.16 259.916 389.596 259.7 388.937C259.485 388.279 259.501 387.567 259.747 386.92L256.234 390.433C255.56 391.107 254.646 391.485 253.693 391.485C252.74 391.485 251.826 391.107 251.152 390.433C250.478 389.759 250.099 388.844 250.099 387.891C250.099 386.938 250.478 386.024 251.152 385.35L259.518 376.984L259.503 376.969L251.137 385.336C250.463 386.01 249.549 386.388 248.596 386.388C247.643 386.388 246.729 386.01 246.055 385.336C245.381 384.662 245.002 383.747 245.002 382.794C245.002 381.841 245.381 380.927 246.055 380.253L249.538 376.77C248.891 377.004 248.183 377.012 247.531 376.79C246.879 376.568 246.322 376.13 245.953 375.549C245.583 374.968 245.423 374.278 245.498 373.594C245.574 372.91 245.88 372.271 246.367 371.785L250.343 367.809L250.125 367.591L242.982 374.734C242.308 375.408 241.394 375.786 240.441 375.786C239.488 375.786 238.573 375.408 237.899 374.734C237.225 374.06 236.847 373.146 236.847 372.192C236.847 371.239 237.225 370.325 237.899 369.651L241.067 366.484C240.499 367.052 239.729 367.371 238.926 367.371C238.123 367.371 237.353 367.052 236.785 366.484C236.217 365.916 235.898 365.146 235.898 364.343C235.898 363.54 236.217 362.77 236.785 362.202L241.498 357.49C250.084 355.182 259.132 355.218 267.7 357.593C276.268 359.969 284.043 364.596 290.216 370.995C296.389 377.394 300.735 385.33 302.801 393.977C304.867 402.625 304.578 411.668 301.965 420.166Z" fill="#E6E6E6"/>
<path opacity="0.2" d="M247.278 384.112C246.944 383.779 246.679 383.382 246.499 382.946C246.318 382.51 246.225 382.043 246.225 381.571C246.225 381.099 246.318 380.632 246.499 380.196C246.679 379.76 246.944 379.363 247.278 379.03L245.953 380.355C245.279 381.029 244.9 381.943 244.9 382.896C244.9 383.849 245.279 384.764 245.953 385.438C246.627 386.112 247.541 386.49 248.494 386.49C249.447 386.49 250.361 386.112 251.035 385.438L252.361 384.112C252.027 384.446 251.631 384.711 251.195 384.892C250.758 385.072 250.291 385.165 249.819 385.165C249.347 385.165 248.88 385.072 248.444 384.892C248.008 384.711 247.611 384.446 247.278 384.112Z" fill="black"/>
<path opacity="0.2" d="M252.375 389.209C252.041 388.876 251.776 388.479 251.596 388.043C251.415 387.607 251.322 387.14 251.322 386.668C251.322 386.196 251.415 385.729 251.596 385.293C251.776 384.857 252.041 384.46 252.375 384.127L251.049 385.452C250.716 385.786 250.451 386.182 250.27 386.618C250.09 387.054 249.997 387.521 249.997 387.993C249.997 388.465 250.09 388.933 250.27 389.369C250.451 389.805 250.716 390.201 251.049 390.535C251.383 390.868 251.779 391.133 252.215 391.314C252.652 391.494 253.119 391.587 253.591 391.587C254.063 391.587 254.53 391.494 254.966 391.314C255.402 391.133 255.798 390.868 256.132 390.535L257.457 389.209C257.124 389.543 256.728 389.808 256.291 389.989C255.855 390.169 255.388 390.262 254.916 390.262C254.444 390.262 253.977 390.169 253.541 389.989C253.105 389.808 252.708 389.543 252.375 389.209Z" fill="black"/>
<path opacity="0.2" d="M250.761 375.546C250.114 375.781 249.406 375.788 248.754 375.567C248.102 375.345 247.545 374.907 247.176 374.326C246.806 373.745 246.646 373.055 246.721 372.371C246.797 371.686 247.103 371.048 247.591 370.562L246.265 371.887C245.778 372.373 245.472 373.012 245.396 373.696C245.321 374.38 245.481 375.07 245.851 375.651C246.22 376.232 246.777 376.67 247.429 376.892C248.08 377.114 248.788 377.106 249.436 376.872L250.761 375.546Z" fill="black"/>
<path opacity="0.2" d="M260.727 375.746L259.401 377.071L259.416 377.086L260.741 375.76L260.727 375.746Z" fill="black"/>
<path opacity="0.2" d="M242.29 365.261C242.009 365.542 241.675 365.765 241.308 365.917C240.94 366.069 240.547 366.147 240.149 366.147C239.752 366.147 239.358 366.069 238.991 365.917C238.623 365.765 238.289 365.542 238.008 365.261C237.727 364.979 237.504 364.646 237.352 364.278C237.2 363.911 237.122 363.517 237.122 363.12C237.122 362.722 237.2 362.329 237.352 361.961C237.504 361.594 237.727 361.26 238.008 360.979L236.683 362.304C236.115 362.872 235.796 363.642 235.796 364.445C235.796 365.248 236.115 366.018 236.683 366.586C237.251 367.154 238.021 367.473 238.824 367.473C239.627 367.473 240.397 367.154 240.965 366.586L242.29 365.261Z" fill="black"/>
<path opacity="0.2" d="M251.348 366.368L250.023 367.693L250.241 367.911L251.566 366.586L251.348 366.368Z" fill="black"/>
<path opacity="0.2" d="M239.122 373.511C238.789 373.177 238.524 372.781 238.343 372.345C238.163 371.909 238.07 371.441 238.07 370.969C238.07 370.497 238.163 370.03 238.343 369.594C238.524 369.158 238.789 368.762 239.122 368.428L237.797 369.753C237.464 370.087 237.199 370.483 237.018 370.919C236.838 371.355 236.745 371.822 236.745 372.294C236.745 372.766 236.838 373.234 237.018 373.67C237.199 374.106 237.464 374.502 237.797 374.836C238.131 375.17 238.527 375.434 238.963 375.615C239.399 375.795 239.867 375.888 240.339 375.888C240.811 375.888 241.278 375.795 241.714 375.615C242.15 375.434 242.546 375.17 242.88 374.836L244.205 373.511C243.872 373.844 243.475 374.109 243.039 374.29C242.603 374.47 242.136 374.563 241.664 374.563C241.192 374.563 240.725 374.47 240.288 374.29C239.852 374.109 239.456 373.844 239.122 373.511Z" fill="black"/>
<path opacity="0.2" d="M261.549 398.384C261.215 398.05 260.951 397.654 260.77 397.218C260.589 396.782 260.496 396.315 260.496 395.843C260.496 395.371 260.589 394.903 260.77 394.467C260.951 394.031 261.215 393.635 261.549 393.301L260.224 394.626C259.89 394.96 259.626 395.356 259.445 395.792C259.264 396.229 259.171 396.696 259.171 397.168C259.171 397.64 259.264 398.107 259.445 398.543C259.626 398.979 259.89 399.375 260.224 399.709C260.558 400.043 260.954 400.308 261.39 400.488C261.826 400.669 262.293 400.762 262.765 400.762C263.237 400.762 263.705 400.669 264.141 400.488C264.577 400.308 264.973 400.043 265.307 399.709L266.632 398.384C266.298 398.718 265.902 398.983 265.466 399.163C265.03 399.344 264.563 399.437 264.091 399.437C263.619 399.437 263.151 399.344 262.715 399.163C262.279 398.983 261.883 398.718 261.549 398.384Z" fill="black"/>
<path opacity="0.2" d="M292.553 404.704C292.783 404.474 292.912 404.163 292.912 403.838C292.912 403.513 292.783 403.201 292.553 402.971C292.324 402.741 292.012 402.612 291.687 402.612C291.362 402.612 291.05 402.741 290.82 402.971L289.495 404.296C289.725 404.067 290.037 403.938 290.362 403.938C290.687 403.938 290.998 404.067 291.228 404.296C291.458 404.526 291.587 404.838 291.587 405.163C291.587 405.488 291.458 405.8 291.228 406.029L292.553 404.704Z" fill="black"/>
<path opacity="0.2" d="M265.94 388.911C265.45 389.401 264.808 389.708 264.119 389.781C263.43 389.854 262.737 389.689 262.156 389.313C261.574 388.937 261.139 388.372 260.924 387.714C260.708 387.056 260.724 386.344 260.97 385.697L259.645 387.022C259.399 387.669 259.383 388.381 259.598 389.039C259.814 389.698 260.249 390.262 260.831 390.638C261.412 391.014 262.105 391.179 262.794 391.106C263.482 391.033 264.125 390.726 264.615 390.236L265.94 388.911Z" fill="black"/>
<path opacity="0.2" d="M279.804 409.503C279.523 409.221 279.3 408.888 279.147 408.52C278.995 408.153 278.917 407.759 278.917 407.362C278.917 406.964 278.995 406.57 279.147 406.203C279.3 405.836 279.523 405.502 279.804 405.221L284.741 399.76L283.415 401.085L278.479 406.546C278.197 406.827 277.974 407.161 277.822 407.528C277.67 407.896 277.592 408.289 277.592 408.687C277.592 409.085 277.67 409.478 277.822 409.846C277.974 410.213 278.197 410.547 278.479 410.828C278.76 411.109 279.093 411.332 279.461 411.484C279.828 411.636 280.222 411.714 280.619 411.714C281.017 411.714 281.411 411.636 281.778 411.484C282.145 411.332 282.479 411.109 282.76 410.828L288.061 405.731L289.386 404.406L284.085 409.503C283.804 409.784 283.47 410.007 283.103 410.159C282.736 410.311 282.342 410.389 281.944 410.389C281.547 410.389 281.153 410.311 280.786 410.159C280.419 410.007 280.085 409.784 279.804 409.503Z" fill="black"/>
<path opacity="0.2" d="M293.056 424.794C292.767 424.505 292.54 424.161 292.388 423.783C292.236 423.404 292.163 422.999 292.172 422.591L291.505 423.257C291.172 423.591 290.775 423.856 290.339 424.036C289.903 424.217 289.436 424.31 288.964 424.31C288.492 424.31 288.025 424.217 287.589 424.036C287.153 423.856 286.756 423.591 286.423 423.257C286.089 422.924 285.824 422.527 285.644 422.091C285.463 421.655 285.37 421.188 285.37 420.716C285.37 420.244 285.463 419.777 285.644 419.341C285.824 418.905 286.089 418.508 286.423 418.175L286.978 417.619C286.394 417.588 285.832 417.389 285.359 417.045C284.886 416.701 284.523 416.227 284.314 415.681C284.105 415.135 284.059 414.54 284.181 413.968C284.303 413.396 284.589 412.872 285.003 412.459L291.119 406.139L289.794 407.464L283.677 413.784C283.263 414.197 282.978 414.721 282.856 415.293C282.734 415.865 282.78 416.46 282.989 417.006C283.198 417.552 283.561 418.026 284.034 418.37C284.507 418.714 285.069 418.913 285.653 418.944L285.097 419.5C284.423 420.174 284.045 421.088 284.045 422.041C284.045 422.994 284.423 423.909 285.097 424.583C285.771 425.257 286.686 425.635 287.639 425.635C288.592 425.635 289.506 425.257 290.18 424.583L290.847 423.916C290.834 424.52 291.002 425.114 291.329 425.621C291.657 426.129 292.129 426.527 292.685 426.764C293.24 427.001 293.854 427.066 294.447 426.951C295.04 426.836 295.585 426.546 296.012 426.119L297.337 424.794C297.056 425.075 296.722 425.298 296.355 425.45C295.988 425.602 295.594 425.68 295.197 425.68C294.799 425.68 294.405 425.602 294.038 425.45C293.671 425.298 293.337 425.075 293.056 424.794Z" fill="black"/>
<path opacity="0.2" d="M272.26 401.959C272.316 401.504 272.267 401.042 272.118 400.609C271.968 400.175 271.722 399.782 271.398 399.457C271.074 399.133 270.68 398.887 270.246 398.738C269.813 398.588 269.351 398.539 268.896 398.595C268.453 398.151 268.158 397.581 268.054 396.962L266.729 398.287C267.851 398.602 268.852 399.247 269.602 400.138C270.352 401.029 270.816 402.125 270.935 403.284C271.216 403.565 271.55 403.789 271.917 403.941C272.285 404.093 272.678 404.171 273.076 404.171C273.473 404.171 273.867 404.093 274.234 403.941C274.602 403.789 274.935 403.565 275.217 403.284L280.576 398.245L281.901 396.92L276.542 401.959C276.261 402.24 275.927 402.463 275.56 402.615C275.192 402.768 274.799 402.846 274.401 402.846C274.003 402.846 273.61 402.768 273.242 402.615C272.875 402.463 272.541 402.24 272.26 401.959Z" fill="black"/>
<path opacity="0.2" d="M287.398 397.103C287.586 396.916 287.735 396.695 287.837 396.451C287.939 396.207 287.992 395.945 287.992 395.681C287.993 395.417 287.941 395.155 287.84 394.91C287.739 394.666 287.591 394.444 287.404 394.257C287.217 394.07 286.995 393.922 286.751 393.821C286.506 393.72 286.244 393.668 285.98 393.669C285.715 393.669 285.454 393.722 285.21 393.824C284.966 393.926 284.744 394.075 284.558 394.263L283.233 395.588C283.419 395.4 283.641 395.251 283.885 395.149C284.128 395.047 284.39 394.994 284.655 394.994C284.919 394.993 285.181 395.045 285.425 395.146C285.67 395.247 285.892 395.395 286.079 395.582C286.266 395.769 286.414 395.991 286.515 396.235C286.616 396.48 286.667 396.742 286.667 397.006C286.666 397.271 286.614 397.532 286.512 397.776C286.41 398.02 286.261 398.242 286.073 398.428L287.398 397.103Z" fill="black"/>
<path d="M263.391 373.62L262.882 373.11L260.129 375.862L260.639 376.372L263.391 373.62Z" fill="#3F3D56"/>
<path d="M274.503 381.775L273.993 381.265L271.241 384.018L271.75 384.527L274.503 381.775Z" fill="#3F3D56"/>
<path d="M285.503 375.775L284.993 375.265L282.241 378.018L282.75 378.527L285.503 375.775Z" fill="#3F3D56"/>
<path d="M251.465 380.348L250.955 379.838L248.202 382.59L248.712 383.1L251.465 380.348Z" fill="#3F3D56"/>
<path d="M277.094 396.358L276.965 395.649L273.135 396.346L273.264 397.056L277.094 396.358Z" fill="#3F3D56"/>
<path d="M293.094 389.358L292.965 388.649L289.135 389.346L289.264 390.056L293.094 389.358Z" fill="#3F3D56"/>
<path d="M254.451 365.019L253.735 365.102L254.186 368.968L254.902 368.885L254.451 365.019Z" fill="#3F3D56"/>
<path d="M245.99 362.266L245.274 362.35L245.725 366.216L246.441 366.133L245.99 362.266Z" fill="#3F3D56"/>
<path d="M271.75 369.032L271.241 368.523L268.488 371.275L268.998 371.785L271.75 369.032Z" fill="white"/>
<path d="M292.75 383.032L292.241 382.523L289.488 385.275L289.998 385.785L292.75 383.032Z" fill="white"/>
<path d="M300.75 403.032L300.241 402.523L297.488 405.275L297.998 405.785L300.75 403.032Z" fill="white"/>
<path d="M243.615 369.236L243.105 368.727L240.353 371.479L240.863 371.989L243.615 369.236Z" fill="white"/>
<path d="M278.808 387.417L278.581 386.732L274.887 387.958L275.114 388.642L278.808 387.417Z" fill="white"/>
<path d="M266.269 395.266L266.042 394.582L262.348 395.808L262.575 396.492L266.269 395.266Z" fill="white"/>
<path d="M264.858 382.665L264.138 382.708L264.372 386.593L265.091 386.55L264.858 382.665Z" fill="white"/>
<path d="M266.693 360.646L265.973 360.689L266.207 364.575L266.926 364.531L266.693 360.646Z" fill="white"/>
<path d="M270.629 377.901L270.119 377.391L267.367 380.144L267.877 380.654L270.629 377.901Z" fill="#FF6584"/>
<path d="M294.629 411.901L294.119 411.391L291.367 414.144L291.877 414.654L294.629 411.901Z" fill="#FF6584"/>
<path d="M298.629 394.901L298.119 394.391L295.367 397.144L295.877 397.654L298.629 394.901Z" fill="#FF6584"/>
<path d="M255.986 372.139L255.29 371.952L254.282 375.712L254.979 375.899L255.986 372.139Z" fill="#FF6584"/>
<path d="M279.025 371.119L278.328 370.933L277.321 374.693L278.017 374.879L279.025 371.119Z" fill="#FF6584"/>
<path d="M275.355 361.945L274.658 361.758L273.651 365.518L274.347 365.705L275.355 361.945Z" fill="#FF6584"/>
<path d="M254.93 360.367L254.421 359.858L251.668 362.61L252.178 363.12L254.93 360.367Z" fill="#FF6584"/>
<path d="M775.38 206.93C775.38 204.808 774.538 202.773 773.037 201.273C771.537 199.773 769.502 198.93 767.38 198.93C765.259 198.93 763.224 199.773 761.724 201.273C760.223 202.773 759.38 204.808 759.38 206.93V565.577C759.38 567.699 760.223 569.733 761.724 571.234C763.224 572.734 765.259 573.577 767.38 573.577C769.502 573.577 771.537 572.734 773.037 571.234C774.538 569.733 775.38 567.699 775.38 565.577V209.253" fill="#666668"/>
<path d="M877.43 225.963C863.376 199.458 839.929 179.157 811.686 169.038C783.443 158.92 752.439 159.715 724.75 171.266C697.062 182.817 674.686 204.292 662.007 231.482C649.328 258.673 647.261 289.618 656.211 318.253H671.141C674.141 318.253 676.601 321.593 676.601 325.683H679.341C682.351 325.683 684.811 329.023 684.811 333.113C684.811 337.193 682.351 340.543 679.341 340.543H676.601C676.594 341.164 676.531 341.784 676.411 342.393H688.911C691.921 342.393 694.381 345.743 694.381 349.823C694.381 353.913 691.921 357.253 688.911 357.253H676.971C695.661 380.681 722.421 396.291 752.014 401.029C781.607 405.767 811.903 399.293 836.974 382.873C862.045 366.453 880.087 341.268 887.569 312.248C895.052 283.227 891.436 252.459 877.43 225.963ZM795.571 325.703C788.09 329.928 779.641 332.14 771.05 332.123C769.331 332.123 767.612 332.036 765.901 331.863C754.073 330.627 743.077 325.204 734.897 316.572C726.718 307.939 721.893 296.667 721.296 284.79C720.698 272.913 724.366 261.214 731.637 251.804C738.908 242.394 749.304 235.894 760.948 233.476C772.592 231.059 784.716 232.884 795.133 238.621C805.549 244.359 813.571 253.631 817.75 264.765C821.93 275.898 821.992 288.159 817.924 299.334C813.857 310.509 805.929 319.861 795.571 325.703Z" fill="#222121"/>
<path opacity="0.2" d="M694.053 347.325C694.27 346.509 694.38 345.669 694.38 344.825C694.38 340.739 691.919 337.396 688.911 337.396H683.795C683.412 338.278 682.794 339.038 682.008 339.593C681.222 340.147 680.299 340.475 679.34 340.539H676.605C676.599 341.163 676.534 341.785 676.409 342.396H688.911C691.273 342.396 693.292 344.461 694.053 347.325Z" fill="black"/>
<path opacity="0.2" d="M679.34 325.682C681.702 325.682 683.721 327.747 684.482 330.61C684.699 329.795 684.809 328.954 684.809 328.11C684.809 324.025 682.348 320.682 679.34 320.682H676.605C676.605 316.596 674.144 313.253 671.136 313.253H656.21C652.806 302.345 650.976 291.007 650.774 279.582C650.754 280.471 650.729 281.359 650.729 282.253C650.718 294.462 652.567 306.601 656.21 318.253H671.136C674.144 318.253 676.605 321.596 676.605 325.682H679.34Z" fill="black"/>
<path opacity="0.2" d="M771.055 397.579C754.075 397.597 737.284 394.012 721.792 387.061C706.3 380.109 692.46 369.95 681.185 357.253H676.966C692.519 376.765 713.752 390.959 737.727 397.871C761.702 404.782 787.233 404.07 810.785 395.831C834.337 387.593 854.745 372.237 869.185 351.888C883.624 331.539 891.381 307.205 891.38 282.253C891.38 281.501 891.359 280.754 891.345 280.005C890.627 311.432 877.638 341.33 855.158 363.303C832.677 385.276 802.49 397.579 771.055 397.579Z" fill="black"/>
<path opacity="0.2" d="M771.05 222.383C759.21 222.385 747.635 225.898 737.791 232.478C727.947 239.058 720.275 248.409 715.745 259.349C711.215 270.289 710.031 282.327 712.342 293.94C714.653 305.553 720.356 316.219 728.73 324.591C737.103 332.963 747.771 338.664 759.384 340.974C770.997 343.283 783.035 342.097 793.974 337.565C804.913 333.033 814.263 325.36 820.841 315.514C827.419 305.669 830.93 294.094 830.93 282.253C830.912 266.379 824.597 251.16 813.371 239.936C802.145 228.712 786.925 222.399 771.05 222.383ZM795.57 325.703C788.09 329.928 779.641 332.14 771.05 332.123C769.33 332.123 767.612 332.036 765.9 331.863C754.073 330.627 743.077 325.204 734.897 316.572C726.717 307.939 721.893 296.667 721.295 284.79C720.698 272.913 724.365 261.214 731.637 251.804C738.908 242.394 749.304 235.894 760.948 233.476C772.592 231.059 784.716 232.884 795.132 238.621C805.549 244.359 813.571 253.631 817.75 264.765C821.93 275.898 821.991 288.159 817.924 299.334C813.857 310.509 805.929 319.861 795.57 325.703Z" fill="black"/>
<path d="M877.43 223.965V243.981C877.431 245.443 876.994 246.871 876.177 248.082C875.359 249.293 874.197 250.232 872.841 250.777C871.485 251.322 869.997 251.449 868.568 251.141C867.14 250.833 865.836 250.104 864.825 249.049V251.33C864.825 253.636 863.909 255.847 862.279 257.478C860.648 259.109 858.436 260.025 856.13 260.025C853.824 260.025 851.613 259.109 849.982 257.478C848.352 255.847 847.436 253.636 847.436 251.33V249.429C846.384 250.375 845.08 250.996 843.683 251.216C842.286 251.437 840.854 251.247 839.562 250.671C838.271 250.094 837.174 249.155 836.404 247.968C835.635 246.781 835.227 245.396 835.229 243.981L834.88 222.706V217.799C834.88 217.013 834.567 216.259 834.011 215.703C833.456 215.147 832.702 214.835 831.915 214.835C831.129 214.835 830.375 215.147 829.819 215.703C829.263 216.259 828.951 217.013 828.951 217.799V222.706L828.602 240.494C828.602 242.436 827.83 244.299 826.457 245.673C825.083 247.046 823.22 247.818 821.278 247.818C819.335 247.818 817.472 247.046 816.099 245.673C814.725 244.299 813.954 242.436 813.954 240.494L813.057 222.706V213.614C813.057 212.325 812.545 211.09 811.634 210.179C810.723 209.267 809.487 208.756 808.199 208.756C806.91 208.756 805.675 209.267 804.763 210.179C803.852 211.09 803.341 212.325 803.341 213.614V222.706L802.793 240.494C802.794 242.017 802.32 243.502 801.437 244.743C800.553 245.984 799.305 246.919 797.865 247.416C796.425 247.914 794.866 247.95 793.405 247.519C791.944 247.088 790.654 246.213 789.714 245.014C788.556 246.494 786.871 247.472 785.011 247.742C783.15 248.012 781.257 247.555 779.725 246.464V251.33C779.725 253.636 778.809 255.847 777.179 257.478C775.548 259.109 773.337 260.025 771.031 260.025C768.725 260.025 766.513 259.109 764.882 257.478C763.252 255.847 762.336 253.636 762.336 251.33V236.308C762.336 237.984 761.762 239.609 760.709 240.912C759.656 242.216 758.188 243.118 756.55 243.47C754.912 243.821 753.202 243.6 751.708 242.843C750.213 242.086 749.023 240.84 748.336 239.311V251.33C748.334 253.634 747.416 255.843 745.786 257.472C744.156 259.101 741.946 260.015 739.641 260.015C737.337 260.015 735.127 259.101 733.496 257.472C731.866 255.843 730.949 253.634 730.946 251.33V222.706H730.898V251.33C730.898 253.636 729.981 255.847 728.351 257.478C726.72 259.109 724.509 260.025 722.203 260.025C719.897 260.025 717.685 259.109 716.055 257.478C714.424 255.847 713.508 253.636 713.508 251.33V239.412C712.802 240.922 711.603 242.145 710.109 242.88C708.614 243.616 706.913 243.82 705.287 243.458C703.661 243.096 702.207 242.19 701.165 240.89C700.123 239.591 699.556 237.974 699.557 236.308V222.706H698.811V247.145C698.811 249.451 697.895 251.662 696.264 253.293C694.633 254.923 692.422 255.84 690.116 255.84C687.81 255.84 685.598 254.923 683.968 253.293C682.337 251.662 681.421 249.451 681.421 247.145V236.308C681.421 238.251 680.649 240.114 679.276 241.487C677.902 242.861 676.039 243.633 674.097 243.633C672.154 243.633 670.291 242.861 668.918 241.487C667.544 240.114 666.773 238.251 666.773 236.308V220.185C677.514 201.549 693.054 186.133 711.773 175.539C730.493 164.945 751.71 159.561 773.216 159.947C794.722 160.333 815.732 166.475 834.06 177.734C852.388 188.992 867.364 204.957 877.43 223.965Z" fill="#E6E6E6"/>
<path opacity="0.2" d="M722.203 255.839C721.061 255.84 719.93 255.615 718.875 255.178C717.82 254.741 716.862 254.1 716.054 253.293C715.247 252.486 714.606 251.527 714.169 250.472C713.733 249.417 713.508 248.286 713.508 247.145V251.679C713.508 253.985 714.424 256.196 716.054 257.827C717.685 259.457 719.897 260.373 722.203 260.373C724.509 260.373 726.72 259.457 728.351 257.827C729.981 256.196 730.897 253.985 730.897 251.679V247.145C730.898 248.287 730.673 249.417 730.236 250.472C729.799 251.527 729.158 252.486 728.351 253.293C727.544 254.1 726.585 254.741 725.53 255.178C724.475 255.615 723.344 255.84 722.203 255.839Z" fill="black"/>
<path opacity="0.2" d="M739.641 255.839C738.499 255.84 737.369 255.615 736.314 255.178C735.259 254.741 734.3 254.1 733.493 253.293C732.685 252.486 732.045 251.527 731.608 250.472C731.171 249.417 730.946 248.286 730.946 247.145V251.679C730.946 253.985 731.862 256.196 733.493 257.827C735.124 259.457 737.335 260.373 739.641 260.373C741.947 260.373 744.159 259.457 745.789 257.827C747.42 256.196 748.336 253.985 748.336 251.679V247.145C748.336 248.287 748.111 249.417 747.674 250.472C747.237 251.527 746.597 252.486 745.789 253.293C744.982 254.1 744.024 254.741 742.969 255.178C741.914 255.615 740.783 255.84 739.641 255.839Z" fill="black"/>
<path opacity="0.2" d="M713.508 235.227C712.803 236.736 711.603 237.96 710.109 238.695C708.614 239.431 706.913 239.634 705.287 239.273C703.661 238.911 702.207 238.005 701.165 236.705C700.123 235.405 699.556 233.789 699.557 232.123V236.657C699.556 238.323 700.123 239.939 701.165 241.239C702.207 242.539 703.661 243.445 705.287 243.807C706.913 244.168 708.614 243.965 710.109 243.229C711.603 242.494 712.803 241.27 713.508 239.761V235.227Z" fill="black"/>
<path opacity="0.2" d="M730.946 218.521H730.897V223.055H730.946V218.521Z" fill="black"/>
<path opacity="0.2" d="M681.421 232.123C681.421 234.066 680.649 235.928 679.276 237.302C677.902 238.676 676.039 239.447 674.097 239.447C672.154 239.447 670.291 238.676 668.918 237.302C667.544 235.928 666.773 234.066 666.773 232.123V236.657C666.773 238.6 667.544 240.462 668.918 241.836C670.291 243.21 672.154 243.981 674.097 243.981C676.039 243.981 677.902 243.21 679.276 241.836C680.649 240.462 681.421 238.6 681.421 236.657V232.123Z" fill="black"/>
<path opacity="0.2" d="M699.557 218.521H698.811V223.055H699.557V218.521Z" fill="black"/>
<path opacity="0.2" d="M690.116 251.654C688.974 251.654 687.843 251.43 686.788 250.993C685.733 250.556 684.775 249.915 683.967 249.108C683.16 248.3 682.52 247.342 682.083 246.287C681.646 245.232 681.421 244.101 681.421 242.959V247.493C681.421 249.799 682.337 252.011 683.968 253.642C685.598 255.272 687.81 256.188 690.116 256.188C692.422 256.188 694.633 255.272 696.264 253.642C697.895 252.011 698.811 249.799 698.811 247.493V242.959C698.811 244.101 698.586 245.232 698.149 246.287C697.712 247.342 697.072 248.3 696.264 249.108C695.457 249.915 694.498 250.556 693.443 250.993C692.388 251.43 691.258 251.654 690.116 251.654Z" fill="black"/>
<path opacity="0.2" d="M771.031 255.839C769.889 255.84 768.758 255.615 767.703 255.178C766.648 254.741 765.69 254.1 764.882 253.293C764.075 252.486 763.434 251.527 762.997 250.472C762.56 249.417 762.336 248.286 762.336 247.145V251.679C762.336 253.985 763.252 256.196 764.882 257.827C766.513 259.457 768.725 260.373 771.031 260.373C773.337 260.373 775.548 259.457 777.179 257.827C778.809 256.196 779.725 253.985 779.725 251.679V247.145C779.725 248.287 779.501 249.417 779.064 250.472C778.627 251.527 777.986 252.486 777.179 253.293C776.371 254.1 775.413 254.741 774.358 255.178C773.303 255.615 772.172 255.84 771.031 255.839Z" fill="black"/>
<path opacity="0.2" d="M834.88 213.614C834.88 212.828 834.567 212.074 834.011 211.518C833.456 210.962 832.701 210.649 831.915 210.649C831.129 210.649 830.375 210.962 829.819 211.518C829.263 212.074 828.951 212.828 828.951 213.614V218.148C828.951 217.362 829.263 216.608 829.819 216.052C830.375 215.496 831.129 215.183 831.915 215.183C832.701 215.183 833.456 215.496 834.011 216.052C834.567 216.608 834.88 217.362 834.88 218.148V213.614Z" fill="black"/>
<path opacity="0.2" d="M762.336 232.123C762.336 233.799 761.762 235.424 760.709 236.727C759.656 238.03 758.188 238.933 756.55 239.284C754.912 239.636 753.202 239.415 751.707 238.658C750.213 237.901 749.023 236.654 748.336 235.126V239.66C749.023 241.188 750.213 242.435 751.707 243.192C753.202 243.949 754.912 244.17 756.55 243.818C758.188 243.467 759.656 242.564 760.709 241.261C761.762 239.958 762.336 238.333 762.336 236.657V232.123Z" fill="black"/>
<path opacity="0.2" d="M821.278 243.633C820.316 243.633 819.363 243.443 818.475 243.075C817.586 242.707 816.779 242.168 816.098 241.488C815.418 240.808 814.879 240 814.511 239.111C814.143 238.223 813.953 237.27 813.953 236.308L813.057 218.521V223.055L813.953 240.842C813.953 242.785 814.725 244.648 816.099 246.021C817.472 247.395 819.335 248.167 821.278 248.167C823.22 248.167 825.083 247.395 826.457 246.021C827.83 244.648 828.602 242.785 828.602 240.842L828.951 223.055V218.521L828.602 236.308C828.602 237.27 828.413 238.223 828.045 239.111C827.677 240 827.137 240.808 826.457 241.488C825.777 242.168 824.969 242.707 824.081 243.075C823.192 243.443 822.24 243.633 821.278 243.633Z" fill="black"/>
<path opacity="0.2" d="M870.106 247.12C869.119 247.121 868.142 246.921 867.234 246.533C866.327 246.145 865.507 245.577 864.825 244.864V247.145C864.825 249.451 863.909 251.662 862.279 253.293C860.648 254.923 858.436 255.84 856.13 255.84C853.824 255.84 851.613 254.923 849.982 253.293C848.352 251.662 847.436 249.451 847.436 247.145V245.244C846.384 246.19 845.08 246.811 843.683 247.031C842.286 247.251 840.854 247.062 839.562 246.485C838.271 245.909 837.174 244.97 836.404 243.783C835.635 242.596 835.227 241.211 835.229 239.796L834.88 218.521V223.055L835.229 244.33C835.227 245.745 835.635 247.13 836.404 248.317C837.174 249.504 838.271 250.443 839.562 251.019C840.854 251.596 842.286 251.785 843.683 251.565C845.08 251.345 846.384 250.724 847.436 249.778V251.679C847.436 253.985 848.352 256.196 849.982 257.827C851.613 259.457 853.824 260.374 856.13 260.374C858.436 260.374 860.648 259.457 862.279 257.827C863.909 256.196 864.825 253.985 864.825 251.679V249.398C865.836 250.453 867.14 251.182 868.568 251.49C869.997 251.798 871.485 251.671 872.841 251.126C874.197 250.581 875.359 249.642 876.177 248.431C876.994 247.22 877.431 245.792 877.43 244.33V239.796C877.43 240.758 877.241 241.71 876.873 242.599C876.505 243.488 875.965 244.295 875.285 244.975C874.605 245.655 873.797 246.195 872.909 246.563C872.02 246.931 871.068 247.12 870.106 247.12Z" fill="black"/>
<path opacity="0.2" d="M795.469 243.633C794.36 243.633 793.265 243.38 792.268 242.894C791.271 242.408 790.398 241.702 789.714 240.828C788.556 242.309 786.871 243.286 785.011 243.557C783.15 243.827 781.257 243.369 779.725 242.279V246.813C781.257 247.903 783.15 248.361 785.011 248.091C786.871 247.82 788.556 246.843 789.714 245.362C790.654 246.561 791.944 247.437 793.405 247.868C794.866 248.299 796.425 248.263 797.865 247.765C799.305 247.268 800.553 246.333 801.437 245.092C802.32 243.851 802.794 242.366 802.793 240.842L803.341 223.055V218.521L802.793 236.308C802.793 237.27 802.604 238.223 802.236 239.111C801.868 240 801.328 240.807 800.648 241.488C799.968 242.168 799.16 242.707 798.272 243.075C797.383 243.443 796.431 243.633 795.469 243.633Z" fill="black"/>
<path opacity="0.2" d="M813.057 209.429C813.057 208.14 812.545 206.904 811.634 205.993C810.723 205.082 809.487 204.57 808.199 204.57C806.91 204.57 805.675 205.082 804.764 205.993C803.852 206.904 803.341 208.14 803.341 209.429V213.963C803.341 212.674 803.852 211.438 804.764 210.527C805.675 209.616 806.91 209.104 808.199 209.104C809.487 209.104 810.723 209.616 811.634 210.527C812.545 211.438 813.057 212.674 813.057 213.963V209.429Z" fill="black"/>
<path d="M731.818 210.325H730.074V219.742H731.818V210.325Z" fill="#3F3D56"/>
<path d="M764.777 205.268H763.033V214.685H764.777V205.268Z" fill="#3F3D56"/>
<path d="M856.852 210.848H855.108V220.265H856.852V210.848Z" fill="#3F3D56"/>
<path d="M722.924 242.237H721.181V251.654H722.924V242.237Z" fill="#3F3D56"/>
<path d="M794.156 225.783L792.722 224.791L787.364 232.534L788.799 233.527L794.156 225.783Z" fill="#3F3D56"/>
<path d="M701.812 210.905L700.729 212.272L708.114 218.115L709.196 216.748L701.812 210.905Z" fill="#3F3D56"/>
<path d="M804.35 175.679L803.268 177.047L810.653 182.89L811.735 181.522L804.35 175.679Z" fill="#3F3D56"/>
<path d="M682.628 220.674L681.546 222.042L688.93 227.885L690.012 226.517L682.628 220.674Z" fill="#3F3D56"/>
<path d="M738.27 188.178H736.527V197.595H738.27V188.178Z" fill="white"/>
<path d="M690.489 236.657H688.745V246.074H690.489V236.657Z" fill="white"/>
<path d="M772.101 174.576H770.357V183.993H772.101V174.576Z" fill="white"/>
<path d="M855.806 233.518H854.062V242.935H855.806V233.518Z" fill="white"/>
<path d="M781.793 207.554L780.234 206.772L776.011 215.189L777.57 215.971L781.793 207.554Z" fill="white"/>
<path d="M773.771 242.431L772.213 241.649L767.99 250.066L769.548 250.848L773.771 242.431Z" fill="white"/>
<path d="M870.032 226.736L868.473 225.954L864.25 234.371L865.809 235.153L870.032 226.736Z" fill="white"/>
<path d="M749.8 223.29L748.643 224.595L755.689 230.842L756.846 229.537L749.8 223.29Z" fill="white"/>
<path d="M715.272 182.484L714.115 183.789L721.161 190.036L722.318 188.731L715.272 182.484Z" fill="white"/>
<path d="M830.017 198.178L828.86 199.483L835.906 205.73L837.063 204.426L830.017 198.178Z" fill="white"/>
<path d="M787.816 167.487L786.659 168.792L793.705 175.039L794.862 173.734L787.816 167.487Z" fill="white"/>
<path d="M751.524 205.268H749.78V214.685H751.524V205.268Z" fill="#FF6584"/>
<path d="M849.904 211.215L848.299 210.533L844.619 219.201L846.224 219.883L849.904 211.215Z" fill="#FF6584"/>
<path d="M716.617 220.46L715.107 221.332L719.815 229.487L721.326 228.615L716.617 220.46Z" fill="#FF6584"/>
<path d="M816.365 213.833L814.855 214.705L819.564 222.86L821.074 221.988L816.365 213.833Z" fill="#FF6584"/>
<path d="M754.284 179.305L752.774 180.177L757.483 188.332L758.993 187.46L754.284 179.305Z" fill="#FF6584"/>
<path d="M828.224 177.561L826.713 178.433L831.422 186.588L832.932 185.716L828.224 177.561Z" fill="#FF6584"/>
<path d="M732.312 169.888L730.802 170.76L735.51 178.915L737.02 178.043L732.312 169.888Z" fill="#FF6584"/>
<path d="M795.12 186.434H793.376V195.851H795.12V186.434Z" fill="#FF6584"/>
<path d="M694.674 202.129H692.93V211.546H694.674V202.129Z" fill="#FF6584"/>
<path d="M354.258 546.19C377.46 546.19 396.27 527.38 396.27 504.177C396.27 480.975 377.46 462.165 354.258 462.165C331.055 462.165 312.245 480.975 312.245 504.177C312.245 527.38 331.055 546.19 354.258 546.19Z" fill="#414144"/>
<path d="M370.484 557.987L383.043 555.713L378.97 533.211L366.411 535.485L370.484 557.987Z" fill="#414144"/>
<path d="M345.366 562.534L357.925 560.26L353.852 537.758L341.292 540.032L345.366 562.534Z" fill="#414144"/>
<path d="M352.033 567.269C356.516 563.473 358.995 559.033 357.572 557.352C356.148 555.671 351.36 557.386 346.878 561.182C342.395 564.978 339.915 569.418 341.339 571.099C342.763 572.78 347.55 571.065 352.033 567.269Z" fill="#414144"/>
<path d="M376.628 562.817C381.11 559.021 383.59 554.58 382.166 552.899C380.743 551.218 375.955 552.933 371.472 556.729C366.99 560.526 364.51 564.966 365.934 566.647C367.357 568.328 372.145 566.613 376.628 562.817Z" fill="#414144"/>
<path d="M351.316 508.26C359.246 508.26 365.675 501.831 365.675 493.901C365.675 485.971 359.246 479.542 351.316 479.542C343.386 479.542 336.958 485.971 336.958 493.901C336.958 501.831 343.386 508.26 351.316 508.26Z" fill="white"/>
<path d="M345.415 493.54C348.058 493.54 350.201 491.398 350.201 488.754C350.201 486.111 348.058 483.968 345.415 483.968C342.772 483.968 340.629 486.111 340.629 488.754C340.629 491.398 342.772 493.54 345.415 493.54Z" fill="#414144"/>
<path d="M387.399 458.473C388.031 442.919 374.626 429.745 357.459 429.048C340.291 428.35 325.862 440.394 325.23 455.947C324.598 471.501 336.532 475.035 353.7 475.732C370.867 476.429 386.768 474.026 387.399 458.473Z" fill="#CFCCE0"/>
<path d="M335.94 501.217C336.754 497.667 328.247 492.688 316.938 490.096C305.63 487.504 295.804 488.28 294.99 491.83C294.176 495.38 302.684 500.359 313.992 502.951C325.3 505.543 335.127 504.767 335.94 501.217Z" fill="#414144"/>
<path d="M418.409 514.931C419.223 511.381 410.715 506.402 399.407 503.81C388.099 501.218 378.272 501.995 377.459 505.545C376.645 509.095 385.152 514.074 396.461 516.666C407.769 519.258 417.595 518.481 418.409 514.931Z" fill="#414144"/>
<path d="M365.796 520.734C366.021 521.971 366 523.241 365.734 524.47C365.468 525.699 364.962 526.864 364.246 527.897C363.53 528.931 362.617 529.813 361.559 530.494C360.502 531.175 359.321 531.64 358.083 531.864C356.846 532.088 355.576 532.066 354.347 531.799C353.119 531.533 351.954 531.026 350.921 530.309C349.888 529.593 349.006 528.679 348.326 527.621C347.646 526.563 347.181 525.382 346.958 524.144C346.016 518.942 350.038 517.101 355.24 516.16C360.442 515.218 364.855 515.532 365.796 520.734Z" fill="white"/>
<path d="M593.052 358.425C597.298 347.316 597.913 337.23 594.425 335.897C590.938 334.564 584.669 342.489 580.423 353.598C576.176 364.707 575.562 374.793 579.049 376.126C582.536 377.459 588.806 369.534 593.052 358.425Z" fill="#414144"/>
<path d="M561.649 555.351C585.435 555.351 604.716 536.069 604.716 512.284C604.716 488.498 585.435 469.216 561.649 469.216C537.864 469.216 518.582 488.498 518.582 512.284C518.582 536.069 537.864 555.351 561.649 555.351Z" fill="#414144"/>
<path d="M555.107 546.083H542.023V569.525H555.107V546.083Z" fill="#414144"/>
<path d="M581.275 546.083H568.191V569.525H581.275V546.083Z" fill="#414144"/>
<path d="M552.927 573.886C558.948 573.886 563.83 572.056 563.83 569.798C563.83 567.539 558.948 565.709 552.927 565.709C546.905 565.709 542.023 567.539 542.023 569.798C542.023 572.056 546.905 573.886 552.927 573.886Z" fill="#414144"/>
<path d="M579.094 573.341C585.116 573.341 589.997 571.511 589.997 569.252C589.997 566.994 585.116 565.164 579.094 565.164C573.072 565.164 568.191 566.994 568.191 569.252C568.191 571.511 573.072 573.341 579.094 573.341Z" fill="#414144"/>
<path d="M562.739 516.1C570.868 516.1 577.458 509.51 577.458 501.381C577.458 493.251 570.868 486.661 562.739 486.661C554.61 486.661 548.02 493.251 548.02 501.381C548.02 509.51 554.61 516.1 562.739 516.1Z" fill="white"/>
<path d="M562.739 506.287C565.449 506.287 567.646 504.09 567.646 501.381C567.646 498.671 565.449 496.474 562.739 496.474C560.03 496.474 557.833 498.671 557.833 501.381C557.833 504.09 560.03 506.287 562.739 506.287Z" fill="#3F3D56"/>
<path d="M519.872 472.232C516.395 456.658 527.511 440.922 544.701 437.083C561.891 433.245 578.645 442.758 582.123 458.332C585.6 473.906 574.208 479.65 557.018 483.488C539.828 487.327 523.35 487.806 519.872 472.232Z" fill="#CFCCE0"/>
<path d="M546.93 431.6C570.715 431.6 589.997 412.319 589.997 388.533C589.997 364.748 570.715 345.466 546.93 345.466C523.144 345.466 503.863 364.748 503.863 388.533C503.863 412.319 523.144 431.6 546.93 431.6Z" fill="#414144"/>
<path d="M540.388 422.333H527.304V445.775H540.388V422.333Z" fill="#414144"/>
<path d="M566.555 422.333H553.472V445.775H566.555V422.333Z" fill="#414144"/>
<path d="M538.207 450.136C544.229 450.136 549.11 448.305 549.11 446.047C549.11 443.789 544.229 441.958 538.207 441.958C532.186 441.958 527.304 443.789 527.304 446.047C527.304 448.305 532.186 450.136 538.207 450.136Z" fill="#414144"/>
<path d="M564.375 449.591C570.396 449.591 575.278 447.76 575.278 445.502C575.278 443.244 570.396 441.413 564.375 441.413C558.353 441.413 553.472 443.244 553.472 445.502C553.472 447.76 558.353 449.591 564.375 449.591Z" fill="#414144"/>
<path d="M548.02 392.349C556.149 392.349 562.739 385.759 562.739 377.63C562.739 369.501 556.149 362.911 548.02 362.911C539.891 362.911 533.301 369.501 533.301 377.63C533.301 385.759 539.891 392.349 548.02 392.349Z" fill="white"/>
<path d="M548.02 382.536C550.73 382.536 552.927 380.34 552.927 377.63C552.927 374.92 550.73 372.724 548.02 372.724C545.31 372.724 543.114 374.92 543.114 377.63C543.114 380.34 545.31 382.536 548.02 382.536Z" fill="#3F3D56"/>
<path d="M505.153 348.482C501.676 332.908 512.792 317.171 529.982 313.333C547.172 309.495 563.926 319.008 567.403 334.582C570.881 350.156 559.488 355.9 542.298 359.738C525.109 363.576 508.631 364.056 505.153 348.482Z" fill="#CFCCE0"/>
<path d="M517.878 377.778C519.478 374.404 512.064 367.538 501.318 362.442C490.573 357.345 480.565 355.949 478.965 359.322C477.365 362.695 484.779 369.561 495.525 374.658C506.27 379.754 516.278 381.151 517.878 377.778Z" fill="#414144"/>
<path d="M525.775 404.07C525.775 408.285 536.629 416.609 548.672 416.609C560.715 416.609 572.007 404.742 572.007 400.527C572.007 396.312 560.715 401.344 548.672 401.344C536.629 401.344 525.775 399.855 525.775 404.07Z" fill="white"/>
<path d="M672.697 447.69C676.011 447.69 678.697 445.003 678.697 441.69C678.697 438.376 676.011 435.69 672.697 435.69C669.384 435.69 666.697 438.376 666.697 441.69C666.697 445.003 669.384 447.69 672.697 447.69Z" fill="#222121"/>
<path d="M689.04 399.253C692.353 399.253 695.04 396.567 695.04 393.253C695.04 389.94 692.353 387.253 689.04 387.253C685.726 387.253 683.04 389.94 683.04 393.253C683.04 396.567 685.726 399.253 689.04 399.253Z" fill="#222121"/>
<path d="M674.097 374.495C677.411 374.495 680.097 371.808 680.097 368.495C680.097 365.181 677.411 362.495 674.097 362.495C670.783 362.495 668.097 365.181 668.097 368.495C668.097 371.808 670.783 374.495 674.097 374.495Z" fill="#222121"/>
<path d="M622.303 536.456L625.531 548.131L646.448 542.349L643.221 530.674L622.303 536.456Z" fill="#414144"/>
<path d="M623.751 550.191C625.766 549.634 626.196 544.826 624.71 539.453C623.225 534.08 620.387 530.176 618.373 530.733C616.358 531.29 615.928 536.097 617.414 541.47C618.899 546.843 621.736 550.748 623.751 550.191Z" fill="#414144"/>
<path d="M688.331 496.303C689.81 485.393 688.232 476.172 684.807 475.708C681.382 475.244 677.407 483.712 675.928 494.622C674.449 505.532 676.027 514.753 679.452 515.218C682.877 515.682 686.853 507.214 688.331 496.303Z" fill="#414144"/>
<path d="M678.227 572.655C700.247 572.655 718.098 554.804 718.098 532.784C718.098 510.764 700.247 492.913 678.227 492.913C656.207 492.913 638.356 510.764 638.356 532.784C638.356 554.804 656.207 572.655 678.227 572.655Z" fill="#414144"/>
<path d="M622.303 529.39L625.531 541.065L646.448 535.283L643.221 523.608L622.303 529.39Z" fill="#414144"/>
<path d="M623.75 543.13C625.765 542.573 626.195 537.766 624.709 532.393C623.224 527.02 620.386 523.115 618.372 523.672C616.357 524.229 615.927 529.037 617.413 534.41C618.898 539.783 621.735 543.687 623.75 543.13Z" fill="#414144"/>
<path d="M688.696 523.57C696.222 523.57 702.323 517.469 702.323 509.944C702.323 502.418 696.222 496.317 688.696 496.317C681.17 496.317 675.07 502.418 675.07 509.944C675.07 517.469 681.17 523.57 688.696 523.57Z" fill="white"/>
<path d="M693.054 508.466C695.563 508.466 697.596 506.433 697.596 503.924C697.596 501.415 695.563 499.382 693.054 499.382C690.545 499.382 688.512 501.415 688.512 503.924C688.512 506.433 690.545 508.466 693.054 508.466Z" fill="#666668"/>
<path d="M724.27 560.183C739.024 559.445 750.325 545.644 749.509 529.358C748.694 513.073 736.073 500.469 721.318 501.208C706.564 501.946 704.249 513.528 705.064 529.814C705.879 546.1 709.515 560.921 724.27 560.183Z" fill="#CFCCE0"/>
<path d="M661.932 515.915C659.53 516.109 657.15 515.341 655.314 513.781C653.479 512.22 652.338 509.994 652.144 507.593C651.95 505.191 652.717 502.811 654.278 500.975C655.838 499.14 658.064 497.999 660.466 497.805C665.467 497.4 666.831 501.37 667.235 506.371C667.64 511.372 666.932 515.51 661.932 515.915Z" fill="white"/>
<path d="M673.366 505.777C674.845 494.867 673.267 485.646 669.842 485.182C666.417 484.717 662.442 493.186 660.963 504.096C659.484 515.006 661.062 524.227 664.487 524.691C667.912 525.156 671.888 516.687 673.366 505.777Z" fill="#414144"/>
<path d="M669.697 486.69C673.011 486.69 675.697 484.003 675.697 480.69C675.697 477.376 673.011 474.69 669.697 474.69C666.384 474.69 663.697 477.376 663.697 480.69C663.697 484.003 666.384 486.69 669.697 486.69Z" fill="#222121"/>
<path d="M634.733 342.671C634.871 341.615 634.781 340.543 634.469 339.525C634.158 338.508 633.632 337.569 632.928 336.771C632.223 335.974 631.356 335.337 630.384 334.902C629.413 334.468 628.36 334.247 627.296 334.253H624.92C625.495 333.176 625.796 331.974 625.796 330.753C625.79 328.766 624.998 326.862 623.593 325.457C622.187 324.051 620.283 323.259 618.296 323.253H593.296C591.307 323.253 589.399 324.044 587.992 325.45C586.586 326.857 585.796 328.764 585.796 330.753C585.796 332.743 586.586 334.65 587.992 336.057C589.399 337.463 591.307 338.253 593.296 338.253H595.672C595.097 339.33 594.796 340.532 594.796 341.753C594.801 343.313 595.291 344.833 596.198 346.101C597.105 347.37 598.384 348.326 599.858 348.836C599.72 349.891 599.81 350.964 600.122 351.981C600.433 352.999 600.959 353.938 601.663 354.736C602.368 355.533 603.235 356.17 604.207 356.605C605.178 357.039 606.232 357.26 607.296 357.253H632.296C634.07 357.255 635.787 356.627 637.142 355.481C638.497 354.334 639.401 352.745 639.693 350.995C639.986 349.245 639.648 347.448 638.74 345.923C637.831 344.399 636.412 343.246 634.733 342.671Z" fill="#222121"/>
<path d="M299.265 396.859L298.723 396.316L295.794 399.245L296.337 399.787L299.265 396.859Z" fill="#3F3D56"/>
</g>
<defs>
<clipPath id="clip0_931_29">
<rect width="891.38" height="573.886" fill="white"/>
</clipPath>
</defs>
</svg>
